<?xml version="1.0" encoding="utf-8"?>
<!-- Generator: Adobe Illustrator 16.0.0, SVG Export Plug-In . SVG Version: 6.00 Build 0)  -->
<!DOCTYPE svg PUBLIC "-//W3C//DTD SVG 1.1//EN" "http://www.w3.org/Graphics/SVG/1.1/DTD/svg11.dtd">
<svg version="1.1" id="Layer_1" xmlns="http://www.w3.org/2000/svg" xmlns:xlink="http://www.w3.org/1999/xlink" x="0px" y="0px"
	 width="226.77px" height="112.556px" viewBox="0 0 226.77 112.556" enable-background="new 0 0 226.77 112.556"
	 xml:space="preserve">
<path fill="#F7323F" d="M25.391,19.32v9.964c0.998-1.165,2.117-2.035,3.359-2.61c1.24-0.575,2.652-0.863,4.233-0.863
	c2.871,0,5.117,0.839,6.74,2.517c1.636,1.65,2.455,3.924,2.455,6.823v15.913H30.029V36.461c0-0.957-0.208-1.702-0.624-2.236
	c-0.416-0.533-1.019-0.801-1.81-0.801c-0.736,0-1.471,0.327-2.205,0.978v16.662H12.514V19.32H25.391z"/>
<path fill="#F7323F" d="M71.469,51.063H58.613v-1.873c-0.915,0.681-1.935,1.194-3.058,1.54c-1.164,0.36-2.233,0.541-3.203,0.541
	c-1.886,0-3.481-0.616-4.784-1.851c-1.277-1.249-1.914-2.814-1.914-4.701c0-2.123,0.79-3.862,2.372-5.222
	c1.581-1.373,3.646-2.059,6.198-2.059c0.75,0,1.49,0.049,2.226,0.145c0.734,0.098,1.456,0.243,2.163,0.438
	c0-0.597-0.122-1.127-0.364-1.592c-0.243-0.464-0.586-0.853-1.03-1.164c-0.444-0.312-0.977-0.548-1.602-0.708
	c-0.624-0.159-1.325-0.239-2.101-0.239c-1.235,0-2.428,0.16-3.578,0.479c-0.555,0.153-1.134,0.357-1.737,0.614
	c-0.604,0.257-1.238,0.559-1.903,0.904v-7.53c0.235-0.138,0.562-0.308,0.978-0.509c0.417-0.201,0.936-0.434,1.56-0.697
	c0.625-0.262,1.286-0.501,1.987-0.717c0.7-0.215,1.453-0.398,2.257-0.551c1.594-0.333,3.445-0.499,5.554-0.499
	c4.494,0,7.752,0.964,9.777,2.891c2.039,1.914,3.058,4.68,3.058,8.3V51.063z M56.616,46.217c0.776,0,1.443-0.229,1.997-0.686v-3.495
	c-0.444-0.137-0.815-0.239-1.113-0.301c-0.298-0.063-0.634-0.094-1.009-0.094c-0.763,0-1.381,0.198-1.851,0.593
	c-0.473,0.395-0.708,0.925-0.708,1.591c0,0.68,0.256,1.248,0.769,1.706C55.215,45.988,55.853,46.217,56.616,46.217z"/>
<path fill="#F7323F" d="M94.646,25.811c2.066,0,3.946,0.541,5.639,1.622c1.705,1.069,3.023,2.545,3.951,4.431
	c0.943,1.914,1.415,4.008,1.415,6.282c0,2.76-0.59,5.152-1.768,7.176c-1.165,2.027-2.642,3.524-4.432,4.494
	c-1.775,0.972-3.723,1.456-5.845,1.456c-0.831,0-1.667-0.086-2.506-0.26c-0.84-0.173-1.717-0.454-2.631-0.842v7.926H75.612V26.018
	h12.856v1.914c0.957-0.708,1.945-1.237,2.963-1.591C92.452,25.987,93.523,25.811,94.646,25.811z M88.469,41.557
	c0.042,0.042,0.297,0.16,0.769,0.354c0.471,0.167,0.958,0.25,1.457,0.25c0.79,0,1.421-0.281,1.893-0.842
	c0.471-0.562,0.708-1.321,0.708-2.278c0-0.471-0.063-0.901-0.188-1.29c-0.125-0.387-0.301-0.724-0.53-1.009
	c-0.229-0.284-0.507-0.502-0.833-0.655c-0.326-0.152-0.683-0.229-1.071-0.229c-0.847,0-1.581,0.395-2.205,1.185V41.557z"/>
<path fill="#F7323F" d="M128.079,25.811c2.066,0,3.945,0.541,5.637,1.622c1.707,1.069,3.022,2.545,3.953,4.431
	c0.941,1.914,1.415,4.008,1.415,6.282c0,2.76-0.59,5.152-1.769,7.176c-1.165,2.027-2.643,3.524-4.431,4.494
	c-1.776,0.972-3.725,1.456-5.846,1.456c-0.832,0-1.668-0.086-2.506-0.26c-0.839-0.173-1.717-0.454-2.633-0.842v7.926h-12.855V26.018
	H121.9v1.914c0.958-0.708,1.944-1.237,2.966-1.591C125.883,25.987,126.955,25.811,128.079,25.811z M121.9,41.557
	c0.042,0.042,0.3,0.16,0.77,0.354c0.471,0.167,0.957,0.25,1.456,0.25c0.792,0,1.421-0.281,1.894-0.842
	c0.471-0.562,0.707-1.321,0.707-2.278c0-0.471-0.062-0.901-0.188-1.29c-0.124-0.387-0.3-0.724-0.53-1.009
	c-0.228-0.284-0.507-0.502-0.832-0.655c-0.325-0.152-0.684-0.229-1.071-0.229c-0.848,0-1.58,0.395-2.205,1.185V41.557z"/>
<path fill="#F7323F" d="M151.984,26.018l3.015,6.678l2.894-6.678h12.48l-13.544,32.078h-13.979l5.159-12.19l-8.82-19.888H151.984z"
	/>
<path fill="#F7323F" d="M30.189,60.442v13.134c1.316-1.536,2.792-2.683,4.428-3.441c1.637-0.758,3.497-1.138,5.581-1.138
	c3.784,0,6.745,1.106,8.885,3.319c2.156,2.174,3.236,5.171,3.236,8.993v20.976H36.304V83.036c0-1.261-0.274-2.245-0.823-2.948
	c-0.548-0.703-1.344-1.055-2.386-1.055c-0.969,0-1.938,0.429-2.907,1.29v21.962H13.216V60.442H30.189z"/>
<path fill="#F7323F" d="M74.365,68.586c2.632,0,5.06,0.423,7.28,1.274c2.222,0.849,4.133,2.033,5.732,3.552
	c1.599,1.517,2.846,3.326,3.743,5.427c0.895,2.104,1.343,4.398,1.343,6.884c0,2.468-0.443,4.743-1.331,6.827
	c-0.885,2.083-2.125,3.885-3.715,5.403c-1.59,1.518-3.495,2.699-5.717,3.551c-2.221,0.85-4.666,1.274-7.335,1.274
	c-3.363,0-6.434-0.704-9.213-2.112c-2.742-1.406-4.898-3.4-6.471-5.977c-1.554-2.596-2.331-5.586-2.331-8.967
	c0-3.329,0.759-6.298,2.276-8.911c1.536-2.615,3.665-4.634,6.39-6.062C67.739,69.308,70.855,68.586,74.365,68.586z M74.365,89.15
	c1.152,0,2.066-0.337,2.742-1.014s1.014-1.589,1.014-2.741s-0.342-2.07-1.028-2.757c-0.685-0.687-1.603-1.027-2.755-1.027
	c-0.549,0-1.047,0.092-1.494,0.273c-0.448,0.182-0.832,0.442-1.152,0.782c-0.32,0.337-0.571,0.741-0.755,1.206
	c-0.182,0.467-0.273,0.974-0.273,1.522c0,1.115,0.342,2.02,1.028,2.714C72.376,88.804,73.269,89.15,74.365,89.15z"/>
<path fill="#F7323F" d="M112.073,69.27v17.989c0,2.87,1.024,4.303,3.071,4.303c0.694,0,1.302-0.155,1.822-0.464
	c0.522-0.311,0.947-0.742,1.277-1.29V69.27h16.972v33.015h-16.232v-5.786h-0.11c-1.681,2.122-3.4,3.665-5.155,4.636
	c-1.719,0.95-3.765,1.426-6.142,1.426c-3.491,0-6.289-1.042-8.391-3.126c-2.083-2.085-3.125-4.909-3.125-8.473V69.27H112.073z"/>
<path fill="#F7323F" d="M172.919,76.949c0,2.432-0.739,4.388-2.22,5.868c-1.464,1.48-3.346,2.222-5.649,2.222
	c-2.615,0-4.9-1.006-6.855-3.018c-0.876,0.768-1.517,1.795-1.919,3.086c-0.403,1.288-0.604,2.819-0.604,4.591v12.587h-16.946V69.27
	h16.946v7.021h0.109c1.043-2.395,2.351-4.211,3.923-5.443c1.572-1.233,3.354-1.851,5.346-1.851c2.25,0,4.123,0.751,5.623,2.248
	C172.17,72.725,172.919,74.626,172.919,76.949z"/>
<polyline fill="#FF3FB4" stroke="#9BE7D8" stroke-miterlimit="10" points="168.437,16.006 192.339,52.794 216.545,16.006 "/>
<polygon fill="#9BE7D8" points="193.702,50.86 191.188,50.856 188.94,90.672 165.039,102.079 215.567,102.079 194.708,91.009 "/>
<circle fill="#95C11F" cx="192.49" cy="32.192" r="7.15"/>
<line fill="#432918" stroke="#000000" stroke-width="0.4" stroke-miterlimit="10" x1="195.243" y1="29.235" x2="213.963" y2="7.934"/>
</svg>
